<svg width="672" height="518" viewBox="0 0 672 518" fill="none" xmlns="http://www.w3.org/2000/svg">
<g clip-path="url(#clip0_17_1619)">
<path d="M334.087 128.498C312.705 123.176 294.347 112.714 279.996 95.4434C278.902 94.7731 278.118 93.6962 277.817 92.449C277.516 91.2018 277.722 89.8861 278.39 88.7906L303.354 47.9398C304.024 46.8458 305.101 46.0623 306.348 45.7612C307.595 45.4602 308.911 45.6661 310.006 46.3339L364.097 79.3888C365.191 80.0591 365.975 81.1359 366.276 82.3831C366.577 83.6303 366.371 84.946 365.703 86.0416L340.74 126.892C340.069 127.986 338.992 128.77 337.745 129.071C336.498 129.372 335.182 129.166 334.087 128.498Z" fill="#E6E6E6"/>
<path d="M319.664 115.381C308.406 114.152 296.705 105.154 284.889 94.1301C283.865 93.5024 283.131 92.4939 282.849 91.3258C282.567 90.1578 282.76 88.9256 283.385 87.8996L304.839 52.7918C305.467 51.7672 306.476 51.0333 307.644 50.7513C308.812 50.4694 310.044 50.6622 311.07 51.2876L359.204 80.7019C360.228 81.3297 360.962 82.3383 361.244 83.5064C361.526 84.6744 361.333 85.9067 360.708 86.9327L347.417 108.681C344.621 113.245 340.129 116.514 334.926 117.77C329.723 119.026 324.234 118.167 319.664 115.381Z" fill="white"/>
<path d="M424.087 193.498C402.705 188.176 384.347 177.714 369.996 160.443C368.902 159.773 368.118 158.696 367.817 157.449C367.516 156.202 367.722 154.886 368.39 153.791L393.354 112.94C394.024 111.846 395.101 111.062 396.348 110.761C397.595 110.46 398.911 110.666 400.006 111.334L454.097 144.389C455.191 145.059 455.975 146.136 456.276 147.383C456.577 148.63 456.371 149.946 455.703 151.042L430.74 191.892C430.069 192.986 428.992 193.77 427.745 194.071C426.498 194.372 425.182 194.166 424.087 193.498Z" fill="#E6E6E6"/>
<path d="M409.664 180.381C398.406 179.152 386.705 170.154 374.889 159.13C373.865 158.502 373.131 157.494 372.849 156.326C372.567 155.158 372.76 153.926 373.385 152.9L394.839 117.792C395.467 116.767 396.476 116.033 397.644 115.751C398.812 115.469 400.044 115.662 401.07 116.288L449.204 145.702C450.228 146.33 450.962 147.338 451.244 148.506C451.526 149.674 451.333 150.907 450.708 151.933L437.417 173.681C434.621 178.245 430.129 181.514 424.926 182.77C419.723 184.026 414.234 183.167 409.664 180.381Z" fill="white"/>
<path d="M353.087 219.498C331.705 214.176 313.347 203.714 298.996 186.443C297.902 185.773 297.118 184.696 296.817 183.449C296.516 182.202 296.722 180.886 297.39 179.791L322.354 138.94C323.024 137.846 324.101 137.062 325.348 136.761C326.595 136.46 327.911 136.666 329.006 137.334L383.097 170.389C384.191 171.059 384.975 172.136 385.276 173.383C385.577 174.63 385.371 175.946 384.703 177.042L359.74 217.892C359.069 218.986 357.992 219.77 356.745 220.071C355.498 220.372 354.182 220.166 353.087 219.498Z" fill="#E6E6E6"/>
<path d="M338.664 206.381C327.406 205.152 315.705 196.154 303.889 185.13C302.865 184.502 302.131 183.494 301.849 182.326C301.567 181.158 301.76 179.926 302.385 178.9L323.839 143.792C324.467 142.767 325.476 142.033 326.644 141.751C327.812 141.469 329.044 141.662 330.07 142.288L378.204 171.702C379.228 172.33 379.962 173.338 380.244 174.506C380.526 175.674 380.333 176.907 379.708 177.933L366.417 199.681C363.621 204.245 359.129 207.514 353.926 208.77C348.723 210.026 343.234 209.167 338.664 206.381Z" fill="white"/>
<path d="M86.1666 495.796C85.5915 495.822 85.0223 495.671 84.5359 495.364C84.0496 495.056 83.6696 494.606 83.4476 494.075C83.2255 493.543 83.1721 492.957 83.2945 492.395C83.4169 491.832 83.7092 491.321 84.1319 490.93L84.3243 490.165C84.299 490.104 84.2735 490.043 84.2479 489.982C83.6686 488.613 82.6979 487.447 81.4577 486.628C80.2175 485.81 78.7632 485.376 77.2773 485.382C75.7915 485.387 74.3404 485.832 73.1063 486.659C71.8722 487.487 70.9102 488.661 70.3411 490.033C68.0666 495.511 65.1707 500.999 64.4577 506.791C64.1437 509.351 64.2762 511.947 64.8492 514.462C59.507 502.808 56.733 490.142 56.7151 477.323C56.714 474.106 56.8927 470.892 57.2505 467.695C57.5461 465.074 57.9563 462.472 58.481 459.888C61.3443 445.87 67.492 432.731 76.4191 421.551C80.7398 419.193 84.2341 415.568 86.4309 411.163C87.2268 409.58 87.7893 407.89 88.1009 406.146C87.6135 406.209 86.2632 398.786 86.6308 398.331C85.9515 397.3 84.7358 396.788 83.994 395.782C80.3045 390.78 75.2214 391.653 72.5678 398.451C66.8991 401.312 66.8443 406.057 70.3225 410.62C72.5354 413.523 72.8395 417.452 74.7812 420.56C74.5814 420.816 74.3736 421.063 74.1739 421.319C70.5223 426.015 67.3396 431.057 64.6716 436.373C65.3205 430.417 64.5461 424.392 62.4122 418.794C60.2495 413.577 56.1959 409.183 52.6262 404.673C48.3384 399.255 39.5459 401.619 38.7904 408.487C38.7831 408.554 38.776 408.62 38.769 408.686C39.2992 408.986 39.8183 409.303 40.3261 409.639C40.9641 410.065 41.4584 410.674 41.7444 411.386C42.0303 412.098 42.0945 412.88 41.9285 413.629C41.7626 414.378 41.3742 415.06 40.8143 415.584C40.2544 416.109 39.5491 416.452 38.7908 416.569L38.7131 416.581C38.902 418.492 39.2359 420.386 39.7119 422.246C35.1324 439.956 45.0192 446.406 59.1362 446.696C59.4478 446.856 59.7515 447.016 60.0632 447.168C57.3826 454.764 55.7012 462.677 55.0612 470.707C54.6989 475.445 54.7203 480.204 55.1252 484.938L55.1012 484.77C54.0784 479.506 51.2701 474.756 47.1508 471.322C41.0326 466.296 32.3887 464.446 25.7882 460.406C25.0868 459.955 24.2711 459.715 23.4375 459.713C22.6039 459.711 21.7871 459.947 21.0835 460.394C20.3798 460.841 19.8186 461.48 19.4661 462.235C19.1136 462.991 18.9845 463.831 19.094 464.658C19.1029 464.717 19.1118 464.775 19.121 464.834C20.1049 465.235 21.063 465.697 21.9895 466.216C22.5197 466.516 23.0387 466.833 23.5466 467.169C24.1845 467.595 24.6789 468.204 24.9648 468.916C25.2507 469.628 25.3149 470.41 25.1489 471.159C24.983 471.908 24.5946 472.59 24.0347 473.114C23.4748 473.639 22.7695 473.982 22.0112 474.099L21.9335 474.111C21.8776 474.119 21.8296 474.127 21.7738 474.135C23.455 478.149 25.8146 481.844 28.7492 485.057C31.6127 500.518 43.9112 501.984 57.0668 497.482H57.0748C58.5182 503.755 60.6096 509.86 63.3152 515.7H85.608C85.688 515.452 85.7598 515.197 85.8318 514.949C83.7683 515.079 81.6967 514.955 79.6632 514.582C81.3172 512.552 82.9712 510.506 84.6252 508.477C84.6621 508.439 84.6968 508.399 84.7291 508.357C85.5681 507.318 86.4151 506.288 87.254 505.249L87.2545 505.248C87.2992 502.064 86.9338 498.887 86.1674 495.796L86.1666 495.796Z" fill="#F2F2F2"/>
<path d="M241.077 124.841C243.97 124.841 246.316 122.504 246.316 119.621C246.316 116.738 243.97 114.401 241.077 114.401C238.183 114.401 235.838 116.738 235.838 119.621C235.838 122.504 238.183 124.841 241.077 124.841Z" fill="#E6E6E6"/>
<path d="M67.218 490.329L76 496.038L102.202 464.885L89.242 456.458L67.218 490.329Z" fill="#FFB6B6"/>
<path d="M60.9524 499.288L87.9558 516.847L88.1778 516.505C89.9903 513.718 90.6212 510.325 89.9319 507.072C89.2426 503.819 87.2895 500.973 84.5022 499.161L84.5016 499.16L82.0025 492.211L70.3661 489.969L68.0088 488.436L60.9524 499.288Z" fill="#090B09"/>
<path d="M217.708 505.29L228.183 505.289L233.165 464.888L217.706 464.889L217.708 505.29Z" fill="#FFB6B6"/>
<path d="M217.34 516.217L249.55 516.216V515.809C249.549 512.484 248.228 509.295 245.877 506.944C243.526 504.593 240.337 503.272 237.013 503.272H237.012L231.128 498.808L220.151 503.272L217.339 503.273L217.34 516.217Z" fill="#090B09"/>
<path d="M109.288 255.987L203.216 258.052L212.527 269.69C212.527 269.69 211.722 265.587 212.438 270.093C213.155 274.6 231.275 364.455 227.85 367.469C224.425 370.482 234.345 391.289 235.074 392.558C235.802 393.827 243.656 456.458 235.074 461.607L231.85 483.469H216.85C216.85 483.469 201.824 466.079 204.848 462.927C207.872 459.775 199.223 449.293 198.892 443.672C198.561 438.051 195.403 412.556 197.85 408.469C200.297 404.381 203.604 389.04 197.397 383.093C191.191 377.146 162.242 304.064 162.242 304.064C162.242 304.064 153.83 389.741 153.85 396.469C153.876 405.218 148.131 400.888 148.131 408.568C148.131 410.12 129.423 450.002 116.85 462.469L90.8501 482.469L78.8501 473.469V460.469C78.8501 460.469 89.9708 436.348 93.8501 432.469C97.7294 428.589 112.053 416.715 112.053 411.284C112.053 405.853 118.796 403.961 114.261 396.76C109.726 389.56 111.277 386.456 112.829 383.353C114.381 380.249 111.438 253.093 111.438 253.093L109.288 255.987Z" fill="#090B09"/>
<path d="M127.073 78.5953L167.826 76.6372L178.255 93.7459C178.255 93.7459 208.715 96.8031 204.359 108.259C200.004 119.716 193.28 198.27 199.438 208.093C202.688 213.277 208.188 230.625 212.659 245.857C213.525 248.811 213.678 251.928 213.105 254.952C212.533 257.977 211.251 260.822 209.366 263.255C207.48 265.688 205.045 267.64 202.259 268.949C199.473 270.258 196.417 270.888 193.34 270.787C164.353 269.831 121.303 267.566 116.211 262.473C108.452 254.715 101.47 248.508 106.125 246.18C110.78 243.853 117.438 210.093 117.438 210.093C117.438 210.093 86.5291 112.731 94.5965 109.863C102.664 106.995 125.185 93.7459 125.185 93.7459L127.073 78.5953Z" fill="#9AD4E2"/>
<path d="M148.454 67.4416C164.13 67.4416 176.837 54.7341 176.837 39.0586C176.837 23.3832 164.13 10.6757 148.454 10.6757C132.779 10.6757 120.071 23.3832 120.071 39.0586C120.071 54.7341 132.779 67.4416 148.454 67.4416Z" fill="#FFB6B6"/>
<path d="M1.18448 517.303L316.542 517.61C316.857 517.608 317.158 517.482 317.38 517.259C317.602 517.036 317.727 516.734 317.727 516.419C317.727 516.105 317.602 515.803 317.38 515.579C317.158 515.356 316.857 515.23 316.542 515.229L1.18448 514.921C0.869727 514.923 0.568411 515.049 0.346405 515.272C0.124399 515.495 -0.000244141 515.797 -0.000244141 516.112C-0.000244141 516.427 0.124399 516.729 0.346405 516.952C0.568411 517.175 0.869727 517.301 1.18448 517.303Z" fill="#CACACA"/>
<path d="M125.779 266.835L117.79 242.784L103.414 245.431L112.766 270.559C112.197 272.031 112.051 273.632 112.342 275.183C112.634 276.734 113.353 278.173 114.418 279.338C115.482 280.503 116.851 281.348 118.37 281.778C119.888 282.208 121.497 282.205 123.014 281.771C124.531 281.337 125.897 280.488 126.959 279.32C128.02 278.152 128.735 276.711 129.022 275.159C129.309 273.607 129.158 272.006 128.585 270.536C128.012 269.065 127.041 267.783 125.779 266.835Z" fill="#FFB6B6"/>
<path d="M96.9171 110.072L96.5381 110.23C93.0132 111.7 89.8997 114.007 87.4672 116.951C85.0346 119.895 83.3563 123.388 82.5776 127.127C80.5399 136.88 78.5351 150.986 80.1202 164.195C82.9196 187.524 84.7859 197.789 88.5186 205.254C92.2513 212.72 93.1844 209.92 92.2512 215.519C91.3181 221.118 86.6522 216.452 91.3181 223.918C95.9839 231.383 98.7834 229.517 96.9171 233.249C95.0508 236.982 92.2513 236.982 95.9839 241.648C99.7165 246.314 99.7165 248.18 100.65 250.046C101.583 251.913 104.382 265.91 104.382 265.91C104.382 265.91 119.313 261.244 127.711 263.111C127.711 263.111 120.246 250.046 122.112 247.247C123.979 244.447 126.778 243.514 123.979 240.715C121.179 237.915 116.513 238.848 121.179 236.049C125.845 233.249 117.447 204.321 117.447 204.321L96.9171 110.072Z" fill="#9AD4E2"/>
<path d="M321.383 163.22L296.815 157.001L291.304 170.54L317.513 176.191C318.447 177.463 319.718 178.449 321.182 179.038C322.646 179.627 324.246 179.796 325.801 179.527C327.356 179.257 328.804 178.558 329.984 177.51C331.164 176.462 332.028 175.106 332.479 173.593C332.931 172.081 332.951 170.473 332.538 168.949C332.126 167.426 331.296 166.048 330.143 164.97C328.99 163.893 327.56 163.158 326.012 162.848C324.465 162.539 322.861 162.668 321.383 163.22H321.383Z" fill="#FFB6B6"/>
<path d="M173.747 103.125L173.676 103.53C173.017 107.292 173.284 111.157 174.455 114.792C175.626 118.428 177.665 121.723 180.396 124.392C187.517 131.361 198.324 140.647 210.308 146.424C231.474 156.627 241.128 160.582 249.429 161.457C257.729 162.332 255.873 160.038 260.088 163.839C264.304 167.64 257.859 169.059 266.662 169.148C275.465 169.236 275.4 165.872 277.541 169.455C279.681 173.037 278.173 175.396 284.115 174.764C290.057 174.131 291.629 175.136 293.704 175.355C295.779 175.573 309.082 180.752 309.082 180.752C309.082 180.752 313.19 165.658 319.285 159.586C319.285 159.586 304.257 158.842 302.903 155.762C301.549 152.682 302.27 149.82 298.403 150.672C294.537 151.523 292.811 155.957 292.964 150.518C293.118 145.079 192.438 96.0934 192.438 96.0934L173.747 103.125Z" fill="#9AD4E2"/>
<path d="M182.438 34.0933C179.378 35.0433 176.428 35.6033 174.438 33.0933C172.448 30.5833 172.968 27.7133 170.008 26.5033C167.533 25.6733 164.836 25.7981 162.448 26.8533C162.018 27.0133 161.598 27.1933 161.188 27.3733C160.958 27.1733 160.728 26.9834 160.478 26.8033C158.597 25.4654 156.274 24.8999 153.988 25.2233C155.659 26.0303 157.034 27.3422 157.918 28.9733C157.098 29.3833 156.268 29.7933 155.428 30.1433C151.898 31.5873 148.08 32.1891 144.277 31.901C140.474 31.6129 136.79 30.4427 133.518 28.4833C136.798 37.1233 134.248 40.2033 129.438 48.0933L129.248 48.5533C129.728 46.4834 123.438 44.0933 123.438 47.0933C123.715 50.1669 124.387 53.1919 125.438 56.0933C119.268 46.8033 115.628 35.9333 118.018 25.5033C118.528 23.3133 118.758 20.9633 120.148 19.1833C121.538 17.4133 124.098 16.3733 126.118 17.3733C126.369 13.9818 127.533 10.7216 129.489 7.93917C131.444 5.15676 134.117 2.95621 137.223 1.57143C140.329 0.186656 143.752 -0.330575 147.128 0.0747421C150.505 0.48006 153.708 1.79277 156.398 3.87331C158.898 5.80331 160.868 8.3333 163.098 10.5833C165.328 12.8333 167.968 14.8833 171.088 15.4433C173.068 15.7933 175.298 15.5833 176.878 16.8333C178.708 18.2833 178.728 20.8333 178.718 23.2833C176.928 23.2322 175.162 23.7161 173.648 24.6733C175.502 24.7198 177.293 25.3497 178.768 26.4733C178.797 26.4908 178.823 26.5109 178.848 26.5333C179.388 30.6533 179.168 31.5234 182.438 34.0933Z" fill="#2F2E41"/>
<path d="M313.116 52.412C316.009 52.412 318.355 50.0749 318.355 47.1919C318.355 44.3089 316.009 41.9718 313.116 41.9718C310.222 41.9718 307.877 44.3089 307.877 47.1919C307.877 50.0749 310.222 52.412 313.116 52.412Z" fill="#E6E6E6"/>
<path d="M369.473 58.5472C372.366 58.5472 374.712 56.21 374.712 53.3271C374.712 50.4441 372.366 48.107 369.473 48.107C366.579 48.107 364.234 50.4441 364.234 53.3271C364.234 56.21 366.579 58.5472 369.473 58.5472Z" fill="#E6E6E6"/>
<path d="M410.767 97.3928C413.66 97.3928 416.006 95.0557 416.006 92.1727C416.006 89.2898 413.66 86.9526 410.767 86.9526C407.873 86.9526 405.527 89.2898 405.527 92.1727C405.527 95.0557 407.873 97.3928 410.767 97.3928Z" fill="#E6E6E6"/>
<path d="M391.394 202.532C394.288 202.532 396.633 200.195 396.633 197.312C396.633 194.429 394.288 192.092 391.394 192.092C388.501 192.092 386.155 194.429 386.155 197.312C386.155 200.195 388.501 202.532 391.394 202.532Z" fill="#E6E6E6"/>
<path d="M340.622 226.633C343.515 226.633 345.861 224.295 345.861 221.412C345.861 218.529 343.515 216.192 340.622 216.192C337.728 216.192 335.383 218.529 335.383 221.412C335.383 224.295 337.728 226.633 340.622 226.633Z" fill="#E6E6E6"/>
<path d="M287.575 216.845C290.468 216.845 292.814 214.508 292.814 211.625C292.814 208.742 290.468 206.405 287.575 206.405C284.681 206.405 282.336 208.742 282.336 211.625C282.336 214.508 284.681 216.845 287.575 216.845Z" fill="#E6E6E6"/>
<path d="M250.936 177.999C253.829 177.999 256.175 175.662 256.175 172.779C256.175 169.896 253.829 167.559 250.936 167.559C248.042 167.559 245.697 169.896 245.697 172.779C245.697 175.662 248.042 177.999 250.936 177.999Z" fill="#E6E6E6"/>
<path d="M263.998 77.2074C266.892 77.2074 269.238 74.8703 269.238 71.9873C269.238 69.1044 266.892 66.7673 263.998 66.7673C261.105 66.7673 258.759 69.1044 258.759 71.9873C258.759 74.8703 261.105 77.2074 263.998 77.2074Z" fill="#E6E6E6"/>
<path d="M279.716 126.146C282.61 126.146 284.955 123.809 284.955 120.926C284.955 118.043 282.61 115.706 279.716 115.706C276.822 115.706 274.477 118.043 274.477 120.926C274.477 123.809 276.822 126.146 279.716 126.146Z" fill="#E6E6E6"/>
<path d="M362.888 104.613C365.782 104.613 368.128 102.276 368.128 99.3928C368.128 96.5098 365.782 94.1727 362.888 94.1727C359.995 94.1727 357.649 96.5098 357.649 99.3928C357.649 102.276 359.995 104.613 362.888 104.613Z" fill="#E6E6E6"/>
<path d="M375.331 152.246C378.225 152.246 380.571 149.909 380.571 147.026C380.571 144.143 378.225 141.806 375.331 141.806C372.438 141.806 370.092 144.143 370.092 147.026C370.092 149.909 372.438 152.246 375.331 152.246Z" fill="#E6E6E6"/>
<path d="M412.006 163.339C420.325 163.339 427.069 156.62 427.069 148.331C427.069 140.043 420.325 133.323 412.006 133.323C403.687 133.323 396.943 140.043 396.943 148.331C396.943 156.62 403.687 163.339 412.006 163.339Z" fill="#1B92A4"/>
<path d="M337.347 191.397C345.666 191.397 352.41 184.678 352.41 176.389C352.41 168.101 345.666 161.381 337.347 161.381C329.028 161.381 322.285 168.101 322.285 176.389C322.285 184.678 329.028 191.397 337.347 191.397Z" fill="#1B92A4"/>
<path d="M318.355 99.3928C326.674 99.3928 333.418 92.6736 333.418 84.3851C333.418 76.0965 326.674 69.3773 318.355 69.3773C310.036 69.3773 303.292 76.0965 303.292 84.3851C303.292 92.6736 310.036 99.3928 318.355 99.3928Z" fill="#1B92A4"/>
<path d="M331.726 78.4203C356.158 70.8278 382.314 79.0387 406.88 72.0306C412.53 70.4849 417.871 67.9763 422.669 64.6152C426.761 61.5122 430.603 58.0927 434.16 54.3882C441.55 47.0791 449.576 39.4043 460.678 39.489C475.299 39.6004 486.525 50.4609 496.27 60.0506C497.647 61.4059 499.77 59.2861 498.391 57.9292C489.436 49.1173 479.761 39.8209 467.015 37.1905C461.297 35.9225 455.329 36.4182 449.899 38.6124C445.188 40.7531 440.884 43.6958 437.18 47.3094C433.255 50.9092 429.634 54.8285 425.656 58.3713C421.502 62.1498 416.718 65.1697 411.52 67.2936C400.258 71.778 387.904 72.319 375.926 72.1885C360.89 72.0247 345.495 71.0006 330.928 75.5274C329.091 76.0985 329.875 78.9954 331.726 78.4202V78.4203Z" fill="#3F3D56"/>
<path d="M501.628 39.8325L509.138 53.0723L512.772 59.4786C513.418 60.617 514.082 61.7473 514.711 62.8953C515.097 63.6004 515.941 64.8723 515.135 65.5404C514.427 65.8863 513.631 66.0104 512.852 65.8967C511.528 65.8995 510.203 65.8699 508.88 65.8565L501.431 65.781L486.038 65.625C485.649 65.6384 485.281 65.8024 485.01 66.0822C484.74 66.3621 484.589 66.7359 484.589 67.125C484.589 67.514 484.74 67.8879 485.01 68.1678C485.281 68.4476 485.649 68.6115 486.038 68.625C494.974 68.7155 503.915 68.9043 512.852 68.8966C514.411 69.0458 515.971 68.619 517.237 67.6969C517.857 67.0799 518.268 66.2836 518.41 65.4206C518.553 64.5576 518.421 63.6716 518.033 62.8879C517.152 60.9652 516.138 59.106 514.999 57.3237L511.729 51.5581L504.218 38.3183C504.01 37.9892 503.683 37.7537 503.305 37.6614C502.927 37.5691 502.527 37.6273 502.191 37.8238C501.855 38.0202 501.609 38.3395 501.504 38.7142C501.398 39.089 501.443 39.4899 501.628 39.8325V39.8325Z" fill="#3F3D56"/>
<path d="M600.897 72.2741H531.866C531.488 72.2755 531.113 72.2022 530.762 72.0583C530.412 71.9144 530.094 71.7027 529.826 71.4355C529.557 71.1682 529.345 70.8507 529.199 70.501C529.054 70.1514 528.979 69.7765 528.979 69.3978C528.979 69.0192 529.054 68.6443 529.199 68.2946C529.345 67.945 529.557 67.6274 529.826 67.3602C530.094 67.093 530.412 66.8813 530.762 66.7374C531.113 66.5935 531.488 66.5202 531.866 66.5216H600.897C601.276 66.5202 601.651 66.5935 602.001 66.7374C602.351 66.8813 602.67 67.093 602.938 67.3602C603.206 67.6274 603.419 67.945 603.564 68.2946C603.709 68.6443 603.784 69.0192 603.784 69.3978C603.784 69.7765 603.709 70.1514 603.564 70.501C603.419 70.8507 603.206 71.1682 602.938 71.4355C602.67 71.7027 602.351 71.9144 602.001 72.0583C601.651 72.2022 601.276 72.2755 600.897 72.2741H600.897Z" fill="#1B92A4"/>
<path d="M600.897 118.602H531.866C531.488 118.604 531.113 118.531 530.762 118.387C530.412 118.243 530.094 118.031 529.826 117.764C529.557 117.497 529.345 117.179 529.199 116.829C529.054 116.48 528.979 116.105 528.979 115.726C528.979 115.348 529.054 114.973 529.199 114.623C529.345 114.273 529.557 113.956 529.826 113.688C530.094 113.421 530.412 113.21 530.762 113.066C531.113 112.922 531.488 112.848 531.866 112.85H600.897C601.276 112.848 601.651 112.922 602.001 113.066C602.351 113.21 602.67 113.421 602.938 113.688C603.206 113.956 603.419 114.273 603.564 114.623C603.709 114.973 603.784 115.348 603.784 115.726C603.784 116.105 603.709 116.48 603.564 116.829C603.419 117.179 603.206 117.497 602.938 117.764C602.67 118.031 602.351 118.243 602.001 118.387C601.651 118.531 601.276 118.604 600.897 118.602H600.897Z" fill="#E6E6E6"/>
<path d="M668.662 95.4383H531.866C531.488 95.4397 531.113 95.3663 530.762 95.2224C530.412 95.0785 530.094 94.8669 529.826 94.5997C529.557 94.3324 529.345 94.0148 529.199 93.6652C529.054 93.3155 528.979 92.9406 528.979 92.562C528.979 92.1834 529.054 91.8085 529.199 91.4588C529.345 91.1092 529.557 90.7916 529.826 90.5243C530.094 90.2571 530.412 90.0455 530.762 89.9016C531.113 89.7577 531.488 89.6843 531.866 89.6857H668.662C669.041 89.6843 669.416 89.7577 669.766 89.9016C670.117 90.0455 670.435 90.2571 670.703 90.5243C670.971 90.7916 671.184 91.1092 671.329 91.4588C671.475 91.8085 671.549 92.1834 671.549 92.562C671.549 92.9406 671.475 93.3155 671.329 93.6652C671.184 94.0148 670.971 94.3324 670.703 94.5997C670.435 94.8669 670.117 95.0785 669.766 95.2224C669.416 95.3663 669.041 95.4397 668.662 95.4383Z" fill="#E6E6E6"/>
<path d="M569.462 214.522H500.431C500.053 214.523 499.677 214.45 499.327 214.306C498.977 214.162 498.659 213.95 498.39 213.683C498.122 213.416 497.909 213.098 497.764 212.749C497.619 212.399 497.544 212.024 497.544 211.645C497.544 211.267 497.619 210.892 497.764 210.542C497.909 210.192 498.122 209.875 498.39 209.608C498.659 209.34 498.977 209.129 499.327 208.985C499.677 208.841 500.053 208.768 500.431 208.769H569.462C569.841 208.768 570.216 208.841 570.566 208.985C570.916 209.129 571.234 209.34 571.503 209.608C571.771 209.875 571.984 210.192 572.129 210.542C572.274 210.892 572.349 211.267 572.349 211.645C572.349 212.024 572.274 212.399 572.129 212.749C571.984 213.098 571.771 213.416 571.503 213.683C571.234 213.95 570.916 214.162 570.566 214.306C570.216 214.45 569.841 214.523 569.462 214.522Z" fill="#1B92A4"/>
<path d="M569.462 260.85H500.431C500.053 260.851 499.677 260.778 499.327 260.634C498.977 260.49 498.659 260.279 498.39 260.011C498.122 259.744 497.909 259.426 497.764 259.077C497.619 258.727 497.544 258.352 497.544 257.974C497.544 257.595 497.619 257.22 497.764 256.87C497.909 256.521 498.122 256.203 498.39 255.936C498.659 255.669 498.977 255.457 499.327 255.313C499.677 255.169 500.053 255.096 500.431 255.097H569.462C569.841 255.096 570.216 255.169 570.566 255.313C570.916 255.457 571.234 255.669 571.503 255.936C571.771 256.203 571.984 256.521 572.129 256.87C572.274 257.22 572.349 257.595 572.349 257.974C572.349 258.352 572.274 258.727 572.129 259.077C571.984 259.426 571.771 259.744 571.503 260.011C571.234 260.279 570.916 260.49 570.566 260.634C570.216 260.778 569.841 260.851 569.462 260.85Z" fill="#E6E6E6"/>
<path d="M637.227 237.686H500.431C500.053 237.687 499.677 237.614 499.327 237.47C498.977 237.326 498.659 237.114 498.39 236.847C498.122 236.58 497.909 236.262 497.764 235.913C497.619 235.563 497.544 235.188 497.544 234.809C497.544 234.431 497.619 234.056 497.764 233.706C497.909 233.357 498.122 233.039 498.39 232.772C498.659 232.505 498.977 232.293 499.327 232.149C499.677 232.005 500.053 231.932 500.431 231.933H637.227C637.606 231.932 637.981 232.005 638.331 232.149C638.681 232.293 639 232.505 639.268 232.772C639.536 233.039 639.749 233.357 639.894 233.706C640.039 234.056 640.114 234.431 640.114 234.809C640.114 235.188 640.039 235.563 639.894 235.913C639.749 236.262 639.536 236.58 639.268 236.847C639 237.114 638.681 237.326 638.331 237.47C637.981 237.614 637.606 237.687 637.227 237.686Z" fill="#E6E6E6"/>
<path d="M262.968 264.765H193.938C193.559 264.766 193.184 264.693 192.834 264.549C192.484 264.405 192.165 264.194 191.897 263.926C191.629 263.659 191.416 263.342 191.271 262.992C191.125 262.642 191.051 262.267 191.051 261.889C191.051 261.51 191.125 261.135 191.271 260.786C191.416 260.436 191.629 260.118 191.897 259.851C192.165 259.584 192.484 259.372 192.834 259.228C193.184 259.084 193.559 259.011 193.938 259.012H262.968C263.347 259.011 263.722 259.084 264.072 259.228C264.423 259.372 264.741 259.584 265.009 259.851C265.277 260.118 265.49 260.436 265.636 260.786C265.781 261.135 265.855 261.51 265.855 261.889C265.855 262.267 265.781 262.642 265.636 262.992C265.49 263.342 265.277 263.659 265.009 263.926C264.741 264.194 264.423 264.405 264.072 264.549C263.722 264.693 263.347 264.766 262.968 264.765Z" fill="#1B92A4"/>
<path d="M262.968 311.093H193.938C193.559 311.095 193.184 311.021 192.834 310.877C192.484 310.734 192.165 310.522 191.897 310.255C191.629 309.987 191.416 309.67 191.271 309.32C191.125 308.971 191.051 308.596 191.051 308.217C191.051 307.838 191.125 307.463 191.271 307.114C191.416 306.764 191.629 306.447 191.897 306.179C192.165 305.912 192.484 305.7 192.834 305.557C193.184 305.413 193.559 305.339 193.938 305.341H262.968C263.347 305.339 263.722 305.413 264.072 305.557C264.423 305.7 264.741 305.912 265.009 306.179C265.277 306.447 265.49 306.764 265.636 307.114C265.781 307.463 265.855 307.838 265.855 308.217C265.855 308.596 265.781 308.971 265.636 309.32C265.49 309.67 265.277 309.987 265.009 310.255C264.741 310.522 264.423 310.734 264.072 310.877C263.722 311.021 263.347 311.095 262.968 311.093Z" fill="#E6E6E6"/>
<path d="M330.734 287.929H193.938C193.559 287.931 193.184 287.857 192.834 287.713C192.484 287.569 192.165 287.358 191.897 287.09C191.629 286.823 191.416 286.506 191.271 286.156C191.125 285.806 191.051 285.431 191.051 285.053C191.051 284.674 191.125 284.299 191.271 283.95C191.416 283.6 191.629 283.282 191.897 283.015C192.165 282.748 192.484 282.536 192.834 282.392C193.184 282.249 193.559 282.175 193.938 282.177H330.734C331.112 282.175 331.487 282.249 331.838 282.392C332.188 282.536 332.506 282.748 332.774 283.015C333.043 283.282 333.256 283.6 333.401 283.95C333.546 284.299 333.621 284.674 333.621 285.053C333.621 285.431 333.546 285.806 333.401 286.156C333.256 286.506 333.043 286.823 332.774 287.09C332.506 287.358 332.188 287.569 331.838 287.713C331.487 287.857 331.112 287.931 330.734 287.929Z" fill="#E6E6E6"/>
<path d="M409.377 148.617L460.993 187.558L475.683 198.641C477.224 199.804 478.721 197.2 477.197 196.05L425.582 157.11L410.891 146.026C409.35 144.864 407.853 147.467 409.377 148.617H409.377Z" fill="#3F3D56"/>
<path d="M453.298 201.017C464.555 206.418 476.793 209.473 489.268 209.994C489.498 209.991 489.724 209.936 489.93 209.833C490.135 209.729 490.314 209.581 490.454 209.398C490.593 209.215 490.689 209.002 490.734 208.777C490.779 208.551 490.772 208.318 490.714 208.096L482.721 176.012C482.254 174.14 479.36 174.933 479.828 176.81L487.821 208.893L489.268 206.994C477.321 206.5 465.599 203.586 454.812 198.426C453.08 197.596 451.556 200.182 453.298 201.017V201.017Z" fill="#3F3D56"/>
<path d="M335.4 175.699L298.311 228.742L287.858 243.692C286.749 245.278 289.349 246.778 290.448 245.206L327.537 192.163L337.99 177.213C339.099 175.628 336.499 174.127 335.4 175.699Z" fill="#3F3D56"/>
<path d="M284.588 221.5C279.61 232.908 277.021 245.214 276.98 257.661C276.983 257.891 277.038 258.118 277.141 258.323C277.245 258.529 277.394 258.708 277.577 258.847C277.76 258.987 277.972 259.083 278.198 259.128C278.423 259.173 278.656 259.166 278.879 259.108L310.738 249.879C311.109 249.763 311.421 249.507 311.607 249.165C311.794 248.823 311.84 248.423 311.736 248.048C311.633 247.672 311.388 247.352 311.053 247.154C310.718 246.956 310.319 246.896 309.941 246.986L278.081 256.215L279.98 257.661C279.995 245.742 282.444 233.952 287.179 223.014C287.941 221.261 285.357 219.732 284.588 221.5V221.5Z" fill="#3F3D56"/>
</g>
<defs>
<clipPath id="clip0_17_1619">
<rect width="671.549" height="517.61" fill="white"/>
</clipPath>
</defs>
</svg>
