<svg width="898" height="589" viewBox="0 0 898 589" fill="none" xmlns="http://www.w3.org/2000/svg">
<g clip-path="url(#clip0_11_3)">
<path d="M790.753 537.947L791.627 517.564C800.744 512.513 810.913 509.845 821.251 509.791C807.023 521.848 808.801 545.09 799.155 561.304C792.985 571.499 782.677 578.232 771.141 579.602L759.234 587.158C755.928 568.053 760.859 548.405 772.727 533.391C776.057 529.262 779.875 525.585 784.091 522.446C786.943 530.24 790.753 537.947 790.753 537.947Z" fill="#F2F2F2"/>
<path d="M188.867 515.611L160.135 506.594C156.367 490.726 156.392 474.144 160.21 458.288C172.042 484.624 205.85 490.654 225.335 511.537C237.547 524.828 243.265 543.155 240.873 561.341L247.162 582.425C218.676 580.294 192.519 565.341 175.582 541.506C170.95 534.851 167.145 527.617 164.257 519.976C176.444 518.543 188.867 515.611 188.867 515.611H188.867Z" fill="#F2F2F2"/>
<path d="M691.194 583.825C691.19 584.442 690.953 585.033 690.534 585.472C690.115 585.905 689.547 586.147 688.956 586.145H679.961C678.729 586.149 677.727 585.118 677.723 583.841V301.857C677.723 295.641 675.709 290.596 673.236 290.585H113.264C110.78 290.596 108.777 295.641 108.766 301.857V582.097C108.762 583.291 107.887 584.288 106.741 584.405C104.929 584.591 103.116 584.753 101.315 584.904C101.27 584.904 101.225 584.915 101.18 584.915C100.196 585.008 99.2113 585.078 98.2267 585.159H98.2155C97.7009 584.196 97.2086 583.211 96.7051 582.225C96.5437 581.89 96.4594 581.521 96.4589 581.146V287.233C96.4589 285.517 96.5261 283.789 96.6379 282.084C96.7976 279.743 97.0777 277.413 97.4771 275.103C99.3679 264.329 103.642 257.035 108.498 257.012H677.991C678.7 257.017 679.4 257.17 680.05 257.464C681.004 257.902 681.867 258.528 682.59 259.308C683.571 260.365 684.41 261.555 685.085 262.845C687.479 267.217 689.191 273.734 689.795 281.319C689.795 281.388 689.806 281.458 689.806 281.528C689.963 283.406 690.041 285.32 690.03 287.233L690.187 312.086L690.288 326.906L690.59 373.41L690.702 389.924L691.194 583.825Z" fill="#E6E6E6"/>
<path d="M483.369 171.039H426.301C424.62 171.042 423.259 172.456 423.261 174.199V267.64H486.417V174.199C486.418 172.455 485.054 171.04 483.372 171.039H483.369ZM455.027 224.131C451.312 224.113 448.306 220.997 448.288 217.147V206.369C448.288 202.511 451.305 199.384 455.027 199.384C458.749 199.384 461.766 202.511 461.766 206.369V217.147C461.748 220.997 458.742 224.113 455.027 224.131Z" fill="#CCCCCC"/>
<path d="M423.065 264.651V273.666C423.067 274.639 423.827 275.426 424.765 275.428H484.912C485.85 275.424 486.608 274.637 486.613 273.666V264.651H423.065Z" fill="#3F3D56"/>
<path d="M577.867 25.214H333.926C329.562 25.2212 326.027 28.8859 326.02 33.4088V204.031C326.024 208.555 329.561 212.222 333.926 212.226H577.867C582.232 212.222 585.769 208.555 585.774 204.031V33.4088C585.767 28.8859 582.231 25.2212 577.867 25.214Z" fill="#E6E6E6"/>
<path d="M575.831 31.133H335.964C333.628 31.1382 331.736 33.1029 331.736 35.5248V201.918C331.74 204.337 333.631 206.296 335.964 206.301H575.831C578.165 206.296 580.055 204.337 580.059 201.918V35.5247C580.059 33.1029 578.168 31.1382 575.831 31.133Z" fill="white"/>
<path d="M529.109 278.565H386.401C384.952 278.565 383.776 277.347 383.776 275.844C383.776 275.656 383.795 275.468 383.832 275.284L386.047 264.383C386.306 263.127 387.376 262.227 388.615 262.223H526.895C528.135 262.227 529.204 263.127 529.464 264.383L531.678 275.284C531.977 276.755 531.069 278.198 529.65 278.507C529.472 278.546 529.291 278.565 529.109 278.565Z" fill="#CCCCCC"/>
<path d="M393.478 264.186H390.175C389.873 264.186 389.629 264.439 389.629 264.752V266.353C389.629 266.666 389.873 266.919 390.175 266.919H393.478C393.779 266.919 394.024 266.666 394.024 266.353V264.752C394.024 264.439 393.779 264.186 393.478 264.186Z" fill="#E6E6E6"/>
<path d="M402.268 264.186H398.965C398.664 264.186 398.419 264.439 398.419 264.752V266.353C398.419 266.666 398.664 266.919 398.965 266.919H402.268C402.57 266.919 402.814 266.666 402.814 266.353V264.752C402.814 264.439 402.57 264.186 402.268 264.186Z" fill="#E6E6E6"/>
<path d="M411.059 264.186H407.756C407.454 264.186 407.21 264.439 407.21 264.752V266.353C407.21 266.666 407.454 266.919 407.756 266.919H411.059C411.36 266.919 411.605 266.666 411.605 266.353V264.752C411.605 264.439 411.36 264.186 411.059 264.186Z" fill="#E6E6E6"/>
<path d="M419.849 264.186H416.546C416.245 264.186 416 264.439 416 264.752V266.353C416 266.666 416.245 266.919 416.546 266.919H419.849C420.151 266.919 420.396 266.666 420.396 266.353V264.752C420.396 264.439 420.151 264.186 419.849 264.186Z" fill="#E6E6E6"/>
<path d="M428.64 264.186H425.337C425.035 264.186 424.791 264.439 424.791 264.752V266.353C424.791 266.666 425.035 266.919 425.337 266.919H428.64C428.941 266.919 429.186 266.666 429.186 266.353V264.752C429.186 264.439 428.941 264.186 428.64 264.186Z" fill="#E6E6E6"/>
<path d="M437.43 264.186H434.128C433.826 264.186 433.581 264.439 433.581 264.752V266.353C433.581 266.666 433.826 266.919 434.128 266.919H437.43C437.732 266.919 437.977 266.666 437.977 266.353V264.752C437.977 264.439 437.732 264.186 437.43 264.186Z" fill="#E6E6E6"/>
<path d="M446.221 264.186H442.918C442.616 264.186 442.372 264.439 442.372 264.752V266.353C442.372 266.666 442.616 266.919 442.918 266.919H446.221C446.523 266.919 446.767 266.666 446.767 266.353V264.752C446.767 264.439 446.523 264.186 446.221 264.186Z" fill="#E6E6E6"/>
<path d="M455.011 264.186H451.709C451.407 264.186 451.162 264.439 451.162 264.752V266.353C451.162 266.666 451.407 266.919 451.709 266.919H455.011C455.313 266.919 455.558 266.666 455.558 266.353V264.752C455.558 264.439 455.313 264.186 455.011 264.186Z" fill="#E6E6E6"/>
<path d="M463.802 264.186H460.499C460.197 264.186 459.953 264.439 459.953 264.752V266.353C459.953 266.666 460.197 266.919 460.499 266.919H463.802C464.104 266.919 464.348 266.666 464.348 266.353V264.752C464.348 264.439 464.104 264.186 463.802 264.186Z" fill="#E6E6E6"/>
<path d="M472.592 264.186H469.29C468.988 264.186 468.743 264.439 468.743 264.752V266.353C468.743 266.666 468.988 266.919 469.29 266.919H472.592C472.894 266.919 473.139 266.666 473.139 266.353V264.752C473.139 264.439 472.894 264.186 472.592 264.186Z" fill="#E6E6E6"/>
<path d="M481.383 264.186H478.08C477.778 264.186 477.534 264.439 477.534 264.752V266.353C477.534 266.666 477.778 266.919 478.08 266.919H481.383C481.685 266.919 481.929 266.666 481.929 266.353V264.752C481.929 264.439 481.685 264.186 481.383 264.186Z" fill="#E6E6E6"/>
<path d="M490.173 264.186H486.871C486.569 264.186 486.324 264.439 486.324 264.752V266.353C486.324 266.666 486.569 266.919 486.871 266.919H490.173C490.475 266.919 490.72 266.666 490.72 266.353V264.752C490.72 264.439 490.475 264.186 490.173 264.186Z" fill="#E6E6E6"/>
<path d="M498.964 264.186H495.661C495.36 264.186 495.115 264.439 495.115 264.752V266.353C495.115 266.666 495.36 266.919 495.661 266.919H498.964C499.266 266.919 499.51 266.666 499.51 266.353V264.752C499.51 264.439 499.266 264.186 498.964 264.186Z" fill="#E6E6E6"/>
<path d="M507.755 264.186H504.452C504.15 264.186 503.905 264.439 503.905 264.752V266.353C503.905 266.666 504.15 266.919 504.452 266.919H507.755C508.056 266.919 508.301 266.666 508.301 266.353V264.752C508.301 264.439 508.056 264.186 507.755 264.186Z" fill="#E6E6E6"/>
<path d="M516.545 264.186H513.242C512.941 264.186 512.696 264.439 512.696 264.752V266.353C512.696 266.666 512.941 266.919 513.242 266.919H516.545C516.847 266.919 517.091 266.666 517.091 266.353V264.752C517.091 264.439 516.847 264.186 516.545 264.186Z" fill="#E6E6E6"/>
<path d="M525.336 264.186H522.033C521.731 264.186 521.487 264.439 521.487 264.752V266.353C521.487 266.666 521.731 266.919 522.033 266.919H525.336C525.637 266.919 525.882 266.666 525.882 266.353V264.752C525.882 264.439 525.637 264.186 525.336 264.186Z" fill="#E6E6E6"/>
<path d="M393.374 268.741H390.071C389.769 268.741 389.525 268.995 389.525 269.307V270.909C389.525 271.221 389.769 271.475 390.071 271.475H393.374C393.675 271.475 393.92 271.221 393.92 270.909V269.307C393.92 268.995 393.675 268.741 393.374 268.741Z" fill="#E6E6E6"/>
<path d="M402.164 268.741H398.862C398.56 268.741 398.315 268.995 398.315 269.307V270.909C398.315 271.221 398.56 271.475 398.862 271.475H402.164C402.466 271.475 402.711 271.221 402.711 270.909V269.307C402.711 268.995 402.466 268.741 402.164 268.741Z" fill="#E6E6E6"/>
<path d="M410.955 268.741H407.652C407.35 268.741 407.106 268.995 407.106 269.307V270.909C407.106 271.221 407.35 271.475 407.652 271.475H410.955C411.257 271.475 411.501 271.221 411.501 270.909V269.307C411.501 268.995 411.257 268.741 410.955 268.741Z" fill="#E6E6E6"/>
<path d="M419.745 268.741H416.443C416.141 268.741 415.896 268.995 415.896 269.307V270.909C415.896 271.221 416.141 271.475 416.443 271.475H419.745C420.047 271.475 420.292 271.221 420.292 270.909V269.307C420.292 268.995 420.047 268.741 419.745 268.741Z" fill="#E6E6E6"/>
<path d="M428.536 268.741H425.233C424.931 268.741 424.687 268.995 424.687 269.307V270.909C424.687 271.221 424.931 271.475 425.233 271.475H428.536C428.838 271.475 429.082 271.221 429.082 270.909V269.307C429.082 268.995 428.838 268.741 428.536 268.741Z" fill="#E6E6E6"/>
<path d="M437.326 268.741H434.024C433.722 268.741 433.477 268.995 433.477 269.307V270.909C433.477 271.221 433.722 271.475 434.024 271.475H437.326C437.628 271.475 437.873 271.221 437.873 270.909V269.307C437.873 268.995 437.628 268.741 437.326 268.741Z" fill="#E6E6E6"/>
<path d="M446.117 268.741H442.814C442.512 268.741 442.268 268.995 442.268 269.307V270.909C442.268 271.221 442.512 271.475 442.814 271.475H446.117C446.419 271.475 446.663 271.221 446.663 270.909V269.307C446.663 268.995 446.419 268.741 446.117 268.741Z" fill="#E6E6E6"/>
<path d="M454.907 268.741H451.605C451.303 268.741 451.058 268.995 451.058 269.307V270.909C451.058 271.221 451.303 271.475 451.605 271.475H454.907C455.209 271.475 455.454 271.221 455.454 270.909V269.307C455.454 268.995 455.209 268.741 454.907 268.741Z" fill="#E6E6E6"/>
<path d="M463.698 268.741H460.395C460.094 268.741 459.849 268.995 459.849 269.307V270.909C459.849 271.221 460.094 271.475 460.395 271.475H463.698C464 271.475 464.244 271.221 464.244 270.909V269.307C464.244 268.995 464 268.741 463.698 268.741Z" fill="#E6E6E6"/>
<path d="M472.489 268.741H469.186C468.884 268.741 468.639 268.995 468.639 269.307V270.909C468.639 271.221 468.884 271.475 469.186 271.475H472.489C472.79 271.475 473.035 271.221 473.035 270.909V269.307C473.035 268.995 472.79 268.741 472.489 268.741Z" fill="#E6E6E6"/>
<path d="M481.279 268.741H477.976C477.675 268.741 477.43 268.995 477.43 269.307V270.909C477.43 271.221 477.675 271.475 477.976 271.475H481.279C481.581 271.475 481.825 271.221 481.825 270.909V269.307C481.825 268.995 481.581 268.741 481.279 268.741Z" fill="#E6E6E6"/>
<path d="M490.07 268.741H486.767C486.465 268.741 486.221 268.995 486.221 269.307V270.909C486.221 271.221 486.465 271.475 486.767 271.475H490.07C490.371 271.475 490.616 271.221 490.616 270.909V269.307C490.616 268.995 490.371 268.741 490.07 268.741Z" fill="#E6E6E6"/>
<path d="M498.86 268.741H495.557C495.256 268.741 495.011 268.995 495.011 269.307V270.909C495.011 271.221 495.256 271.475 495.557 271.475H498.86C499.162 271.475 499.406 271.221 499.406 270.909V269.307C499.406 268.995 499.162 268.741 498.86 268.741Z" fill="#E6E6E6"/>
<path d="M507.651 268.741H504.348C504.046 268.741 503.802 268.995 503.802 269.307V270.909C503.802 271.221 504.046 271.475 504.348 271.475H507.651C507.952 271.475 508.197 271.221 508.197 270.909V269.307C508.197 268.995 507.952 268.741 507.651 268.741Z" fill="#E6E6E6"/>
<path d="M516.441 268.741H513.138C512.837 268.741 512.592 268.995 512.592 269.307V270.909C512.592 271.221 512.837 271.475 513.138 271.475H516.441C516.743 271.475 516.987 271.221 516.987 270.909V269.307C516.987 268.995 516.743 268.741 516.441 268.741Z" fill="#E6E6E6"/>
<path d="M525.232 268.741H521.929C521.627 268.741 521.383 268.995 521.383 269.307V270.909C521.383 271.221 521.627 271.475 521.929 271.475H525.232C525.533 271.475 525.778 271.221 525.778 270.909V269.307C525.778 268.995 525.533 268.741 525.232 268.741Z" fill="#E6E6E6"/>
<path d="M466.335 274.208H432.266C431.964 274.208 431.719 274.462 431.719 274.774V276.375C431.719 276.688 431.964 276.942 432.266 276.942H466.335C466.637 276.942 466.881 276.688 466.881 276.375V274.774C466.881 274.462 466.637 274.208 466.335 274.208Z" fill="#E6E6E6"/>
<path d="M563.773 54.0583H339.331C338.838 54.047 338.447 53.6237 338.458 53.1128C338.468 52.6177 338.853 52.2189 339.331 52.208H563.773C564.266 52.2192 564.657 52.6425 564.646 53.1535C564.636 53.6486 564.251 54.0474 563.773 54.0583Z" fill="#CACACA"/>
<path d="M354.609 47.4845C357.498 47.4845 359.84 45.003 359.84 41.942C359.84 38.8809 357.498 36.3994 354.609 36.3994C351.72 36.3994 349.378 38.8809 349.378 41.942C349.378 45.003 351.72 47.4845 354.609 47.4845Z" fill="#CCCCCC"/>
<path d="M372.679 47.4845C375.568 47.4845 377.91 45.003 377.91 41.942C377.91 38.8809 375.568 36.3994 372.679 36.3994C369.79 36.3994 367.448 38.8809 367.448 41.942C367.448 45.003 369.79 47.4845 372.679 47.4845Z" fill="#CCCCCC"/>
<path d="M390.749 47.4845C393.637 47.4845 395.979 45.003 395.979 41.942C395.979 38.8809 393.637 36.3994 390.749 36.3994C387.86 36.3994 385.518 38.8809 385.518 41.942C385.518 45.003 387.86 47.4845 390.749 47.4845Z" fill="#CCCCCC"/>
<path d="M346.04 288.973H278.909C273.966 288.973 269.959 293.127 269.959 298.25C269.959 303.374 273.966 307.528 278.909 307.528H303.524V379.429H321.426V307.528H346.04C350.984 307.528 354.991 303.374 354.991 298.25C354.991 293.127 350.984 288.973 346.04 288.973Z" fill="#3F3D56"/>
<path d="M390.348 419.249H210.792C174.811 419.113 144.37 391.648 139.279 354.729L132.923 330.496C119.768 280.281 99.7299 232.282 73.4215 187.966C61.3968 167.725 55.2078 148.132 69.2651 129.268C69.3848 129.107 69.5025 128.949 69.6182 128.793C80.893 113.582 137.011 110.289 155.306 109.649C156.028 109.623 156.754 109.611 157.482 109.611H269.164C269.893 109.611 270.618 109.624 271.34 109.649C291.433 110.256 309.582 122.246 318.596 140.869C328.215 159.882 326.988 182.833 315.401 200.628C276.17 261.71 264.159 300.01 276.456 324.814C288.351 348.805 324.813 361.071 391.203 363.414C409.045 364.044 417.233 378.444 417.29 391.556C417.346 404.33 409.474 418.433 392.057 419.212C391.491 419.237 390.922 419.249 390.348 419.249Z" fill="#3F3D56"/>
<path d="M241.295 584.506H308.425C313.369 584.506 317.376 580.352 317.376 575.228C317.376 570.104 313.369 565.951 308.425 565.951H283.811V409.392H265.909V565.951H241.295C236.351 565.951 232.344 570.104 232.344 575.228C232.344 580.352 236.351 584.506 241.295 584.506Z" fill="#3F3D56"/>
<path d="M302.054 521.389L313.619 527.9L344.233 484.027L327.164 474.417L302.054 521.389Z" fill="#D2ADB2"/>
<path d="M307.621 505.756L328.615 512.57L325.274 521.686L339.67 543.343C341.512 546.113 340.838 549.906 338.166 551.815C336.575 552.951 334.548 553.205 332.743 552.494L308.303 542.87L307.396 532.193L302.446 540.563L293.231 536.934L307.621 505.756V505.756Z" fill="#090B09"/>
<path d="M331.274 78.9469C332.309 86.3078 327.392 93.1454 320.291 94.2191C319.533 94.3336 318.768 94.3785 318.003 94.3533L273.415 192.69L259.431 172.477L305.331 79.4912C306.036 72.0479 312.429 66.6065 319.61 67.3374C325.619 67.949 330.441 72.7486 331.274 78.9468V78.9469Z" fill="#D2ADB2"/>
<path d="M183.306 212.573C183.306 212.573 182.111 229.752 200.855 233.121C219.6 236.491 269.708 203.648 277.938 198.605C286.167 193.562 301.503 130.112 301.503 130.112L288.166 106.731C271.699 128.321 258.768 148.229 257.983 162.361L183.306 212.573H183.306Z" fill="#1B92A4"/>
<path d="M204.945 271.748L208.994 289.777C208.994 289.777 209.033 306.401 211.874 309.466C214.694 312.517 276.717 306.391 276.717 306.391C276.717 306.391 270.141 279.603 270.229 259.333L204.945 271.748Z" fill="#1B92A4"/>
<path d="M335.971 502.357L313.594 489.6C313.168 459.419 330.682 418.576 351.455 375.796C304.997 384.078 261.168 386.731 223.258 376.713C210.308 373.168 202.504 359.503 205.734 346.03C205.882 345.394 206.052 344.765 206.246 344.143C210.783 329.795 200.61 320.801 209.967 305.019C234.577 296.307 257.957 293.847 279.335 301.54L292.731 332.239L359.126 323.334C372.552 321.67 384.736 331.602 386.342 345.518C386.349 345.581 386.356 345.645 386.363 345.708C386.452 346.455 386.51 347.205 386.538 347.959C373.112 413.195 358.059 471.893 335.971 502.357Z" fill="#090B09"/>
<path d="M195.933 157.607L221.511 156.042C223.722 155.907 225.772 157.24 226.617 159.362L233.845 177.525L263.887 203.261C263.887 203.261 275.781 218.95 275.808 239.211C275.836 259.472 280.028 306.368 280.028 306.368C280.028 306.368 262.669 281.042 251.955 287.778C250.132 288.924 249.491 291.268 247.582 292.452C246.629 293.043 244.429 292.469 243.467 293.06C228.703 302.145 213.305 311.02 211.867 309.464C209.042 306.408 205.615 290.795 205.615 290.795L182.202 201.63C179.632 192.131 181.294 181.938 186.733 173.841C188.368 171.454 190.082 169.679 191.675 169.385C195.251 168.596 193.349 160.288 195.933 157.607Z" fill="#1B92A4"/>
<path d="M413.514 559.158L424.311 551.378L399.852 503.547L383.917 515.031L413.514 559.158Z" fill="#D2ADB2"/>
<path d="M415.146 527.065L398.225 542.742C371.319 511.668 350.979 468.086 333.742 418.594C288.579 404.884 254.52 382.773 224.787 356.52C214.7 347.673 207.138 336.308 215.741 325.531C216.143 325.027 216.563 324.54 217.001 324.07C227.158 313.25 252.917 315.312 268.003 305.399L301.704 342.737L299.584 352.747L362.886 374.972C375.629 379.601 382.339 394.061 377.873 407.27C377.851 407.334 377.829 407.399 377.806 407.464C377.569 408.175 377.303 408.875 377.008 409.564L415.146 527.065V527.065Z" fill="#090B09"/>
<path d="M407.219 556.004L424.502 541.897L429.873 549.904L455.246 549.824C458.492 549.813 461.131 552.532 461.142 555.896C461.148 557.898 460.205 559.775 458.619 560.918L437.152 576.385L428.139 571.131L432.007 580.092L423.913 585.924L407.219 556.004Z" fill="#090B09"/>
<path d="M233.703 382.32C227.097 379.414 224.014 371.506 226.818 364.659C227.117 363.929 227.478 363.227 227.896 362.563L169.991 271.989L193.919 270.104L246.731 359.06C252.501 363.551 253.666 372.04 249.333 378.021C245.707 383.025 239.245 384.802 233.703 382.32V382.32Z" fill="#D2ADB2"/>
<path d="M200.409 181.853C200.409 181.853 186.868 171.87 174.353 186.721C161.838 201.572 162.883 263.014 162.765 272.922C162.729 276.024 167.051 282.719 173.006 290.452C175.68 293.924 178.683 297.605 181.768 301.264C183.553 303.382 182.015 307.789 183.807 309.847C185.59 311.894 190.704 311.592 192.4 313.492C200.449 322.509 206.988 329.373 206.988 329.373L233.192 329.707C233.487 309.517 220.148 291.494 203.01 274.076L200.409 181.853Z" fill="#1B92A4"/>
<path d="M173.997 93.9443C171.516 95.8002 168.906 97.7123 165.879 98.1722C162.852 98.6321 159.308 97.1153 158.47 94.0652C157.446 90.336 160.694 86.9404 163.615 84.5168L172.874 76.8315C174.57 75.2727 176.484 73.9899 178.551 73.0269C180.654 72.0676 183.064 72.1511 185.101 73.2538C187.125 74.6702 188.295 77.0729 188.193 79.6015C188.061 82.0939 187.267 84.5001 185.9 86.5547C182.426 92.1662 176.893 96.0646 170.581 97.3477" fill="#090B09"/>
<path d="M244.225 293.612H177.094C172.151 293.612 168.144 297.765 168.144 302.889C168.144 308.013 172.151 312.167 177.094 312.167H201.709V384.068H219.611V312.167H244.225C249.169 312.167 253.176 308.013 253.176 302.889C253.176 297.765 249.169 293.612 244.225 293.612Z" fill="#3F3D56"/>
<path d="M178.11 74.4796C178.38 67.5236 171.228 62.0157 164.527 62.4511C157.826 62.8865 152.065 67.7723 148.265 73.512C144.466 79.2468 142.183 85.8894 139.19 92.1161C136.197 98.3428 132.212 104.439 126.264 107.666C120.318 110.888 112.04 110.313 107.93 104.812C105.338 108.886 104.775 113.997 106.412 118.572C108.095 123.089 111.233 126.863 115.294 129.254C116.911 130.248 118.637 131.035 120.436 131.598C121.178 129.522 122.222 127.577 123.531 125.828C122.94 127.898 122.714 130.062 122.865 132.215C125.638 132.766 128.491 132.719 131.245 132.078C136.731 130.806 141.317 126.929 143.622 121.616C146.135 115.449 144.855 108.418 145.393 101.747C145.926 95.0744 149.805 87.4576 156.263 87.3488C161.182 87.265 160.531 87.6853 163.648 91.6301" fill="#090B09"/>
<path d="M222.775 111.031C222.775 127.684 209.751 141.183 193.685 141.183C177.619 141.183 162.357 121.885 162.357 105.233C162.357 88.5804 177.619 80.8793 193.685 80.8793C209.751 80.8793 222.775 94.3789 222.775 111.031Z" fill="#090B09"/>
<path d="M208.02 147.165C223.037 143.98 232.719 128.781 229.646 113.216C226.574 97.6513 211.91 87.6155 196.893 90.8003C181.877 93.9851 172.194 109.185 175.267 124.749C178.34 140.314 193.004 150.35 208.02 147.165Z" fill="#D2ADB2"/>
<path d="M237.32 114.51C229.105 116.836 220.809 119.273 217.606 114.51C216.984 111.353 215.804 108.341 214.127 105.627C213.811 108.666 213.123 111.652 212.079 114.51C201.699 116.849 191.998 117.408 183.616 114.51C182.463 116.671 181.794 119.073 181.658 121.538C181.243 121.268 180.809 121.032 180.36 120.831C179.821 120.515 179.176 120.456 178.592 120.668C178.188 120.921 177.919 121.354 177.865 121.84C177.809 122.323 177.832 122.813 177.932 123.289C178.049 124.948 178.527 126.558 179.33 127.998C179.973 129.001 180.991 129.678 182.139 129.865C183.302 136.649 192.566 145.822 192.566 145.822C164.595 146.982 164.595 127.314 164.595 108.712L167.952 101.754H179.14V86.6778H210.468C225.296 86.6818 237.316 99.1406 237.32 114.51V114.51Z" fill="#090B09"/>
<path d="M492.234 587.862L1.33915 588.219C0.603402 588.223 0.00385616 587.608 1.8512e-05 586.845C-0.00381914 586.082 0.589506 585.461 1.32525 585.457H1.33915L492.234 585.101C492.969 585.103 493.564 585.723 493.562 586.486C493.559 587.245 492.966 587.86 492.234 587.862Z" fill="#CACACA"/>
<path d="M820.056 587.862L566.357 588.219C565.622 588.223 565.022 587.608 565.018 586.845C565.014 586.082 565.608 585.461 566.343 585.457H566.357L820.056 585.101C820.792 585.098 821.39 585.714 821.393 586.477C821.395 587.24 820.8 587.86 820.065 587.862H820.056Z" fill="#CACACA"/>
<path d="M503.453 171.635H407.284C398.932 171.625 392.163 164.609 392.154 155.952V89.9035C392.163 81.246 398.932 74.2301 407.284 74.2205H503.453C511.805 74.2301 518.574 81.246 518.583 89.9035V155.952C518.574 164.609 511.805 171.625 503.453 171.635ZM407.284 76.5398C400.167 76.5482 394.399 82.5265 394.391 89.9035V155.952C394.399 163.329 400.167 169.307 407.284 169.315H503.453C510.57 169.307 516.338 163.329 516.346 155.952V89.9035C516.338 82.5264 510.57 76.5482 503.453 76.5398L407.284 76.5398Z" fill="#E6E6E6"/>
<path d="M435.779 95.0949H410.055V97.4143H435.779V95.0949Z" fill="#E6E6E6"/>
<path d="M467.116 104.372H410.055V106.692H467.116V104.372Z" fill="#E6E6E6"/>
<path d="M467.116 112.49H410.055V114.81H467.116V112.49Z" fill="#E6E6E6"/>
<path d="M482.78 120.608H410.055V122.928H482.78V120.608Z" fill="#E6E6E6"/>
<path d="M448.096 128.726H410.055V131.045H448.096V128.726Z" fill="#E6E6E6"/>
<path d="M479.424 136.844H410.055V139.163H479.424V136.844Z" fill="#E6E6E6"/>
<path d="M422.363 144.962H410.055V147.281H422.363V144.962Z" fill="#E6E6E6"/>
<path d="M409.218 45.1798C409.109 45.1798 409 45.1362 408.918 45.0493L406.531 42.5199C406.372 42.3513 406.372 42.082 406.531 41.9134L408.918 39.3842C409.08 39.2131 409.346 39.2103 409.51 39.3774C409.675 39.5449 409.678 39.8195 409.517 39.9906L407.415 42.2167L409.517 44.4429C409.678 44.614 409.675 44.8886 409.51 45.0561C409.429 45.1387 409.323 45.1798 409.218 45.1798V45.1798Z" fill="#CCCCCC"/>
<path d="M413.229 45.1798C413.123 45.1798 413.018 45.1387 412.936 45.0561C412.771 44.8886 412.768 44.6142 412.93 44.4429L415.031 42.2166L412.93 39.9906C412.768 39.8195 412.771 39.5449 412.936 39.3774C413.101 39.2097 413.367 39.2128 413.528 39.3841L415.915 41.9134C416.074 42.082 416.074 42.3513 415.915 42.5198L413.528 45.0493C413.446 45.1361 413.338 45.1798 413.229 45.1798V45.1798Z" fill="#CCCCCC"/>
<path d="M538.119 38.9018H533.68C533.173 38.9018 532.763 39.3268 532.763 39.8515V44.4569C532.763 44.9816 533.173 45.4066 533.68 45.4066H538.119C538.625 45.4066 539.039 44.9816 539.039 44.4569V39.8515C539.039 39.3268 538.625 38.9018 538.119 38.9018Z" fill="#CCCCCC"/>
<path d="M527.241 38.9018H522.802C522.296 38.9018 521.885 39.3268 521.885 39.8515V44.4569C521.885 44.9816 522.296 45.4066 522.802 45.4066H527.241C527.747 45.4066 528.161 44.9816 528.161 44.4569V39.8515C528.161 39.3268 527.747 38.9018 527.241 38.9018Z" fill="#CCCCCC"/>
<path d="M548.369 39.1187H543.93C543.423 39.1187 543.013 39.5436 543.013 40.0683V44.6737C543.013 45.1984 543.423 45.6234 543.93 45.6234H548.369C548.875 45.6234 549.289 45.1984 549.289 44.6737V40.0683C549.289 39.5436 548.875 39.1187 548.369 39.1187Z" fill="#CCCCCC"/>
<path d="M481.461 40.8706H445.979C445.36 40.8706 444.862 41.391 444.862 42.0285C444.862 42.6659 445.36 43.1863 445.979 43.1863H481.461C482.076 43.1863 482.578 42.6659 482.578 42.0285C482.578 41.391 482.076 40.8706 481.461 40.8706Z" fill="#CCCCCC"/>
</g>
<defs>
<clipPath id="clip0_11_3">
<rect width="898" height="588.219" fill="white"/>
</clipPath>
</defs>
</svg>
