<?xml version="1.0" encoding="utf-8"?>
<!-- Generator: Adobe Illustrator 25.3.0, SVG Export Plug-In . SVG Version: 6.00 Build 0)  -->
<svg version="1.1" xmlns="http://www.w3.org/2000/svg" xmlns:xlink="http://www.w3.org/1999/xlink" x="0px" y="0px"
	 viewBox="0 0 916.1 177.4" style="enable-background:new 0 0 916.1 177.4;" xml:space="preserve">
<style type="text/css">
	.st0{fill:#082A2B;}
	.st1{fill:none;}
	.st2{fill:#9AD4E1;}
</style>
<g id="Layer_1">
	<path class="st0" d="M122.3,0c-1.5,2.8-2.8,5.4-4.2,7.9l-9.6,18.2l-2.7,5.2l0,0L98.1,46l0,0c-1.2,2.2-2.4,4.4-3.6,6.6
		c-2.4,4.5-4.7,9-7,13.5v0.1l-2.7,5l0,0l0,0c-0.2,0.2-0.3,0.3-0.4,0.5c-4.1,7.7-8.2,15.5-12.3,23.2V95c-0.5,0.9-1.1,1.8-1.5,2.7
		c-1.4,3.3-3.2,6.1-6.6,7.6l0,0l-7,4.3l0,0l-14.5,8.9l0,0l-10.2,6.3l0,0l-2.7,1.6c-0.2,0.1-0.5,0.2-0.7,0.3
		c-7.9,4.9-15.9,9.8-23.8,14.7L0,144.6c2-0.6,4-1.2,5.9-2l28.6-11.2c21-8.2,41.9-16.3,62.9-24.4c0.7-0.3,1.2-0.8,1.5-1.4
		c5.7-10.8,11.3-21.5,17-32.3l5.7-10.7l14.6,28.4l27.2-10.6L122.3,0z"/>
	<path class="st1" d="M105.8,31.4l2.7-5.2"/>
	<path class="st1" d="M84.7,71.3l2.7-5"/>
	<path class="st1" d="M84.7,71.3L84.7,71.3"/>
	<path class="st0" d="M478.9,109.6h29.4v36.8h41.9V94.5h-70.5c-1-21.8,5.6-29.5,25-30.1c16.8-0.5,33.6-0.5,50.5,0
		C572.7,65,579.6,72,579.8,89c0.3,21.3,0.3,42.6,0,63.8c-0.2,16.3-7,23.6-23.4,24.1c-18.3,0.6-36.6,0.6-54.9-0.1
		c-15.8-0.6-22.1-7.6-22.5-23.4C478.7,139.2,478.9,124.9,478.9,109.6z"/>
	<path class="st0" d="M465.8,66.5v28.3h-34.3v82.5h-30.2V95.7h-34.7V66.5H465.8z"/>
	<path class="st0" d="M657.4,94.8v82.6h-29.7V95.8H593V66.6h98.8v28.2H657.4z"/>
	<path class="st0" d="M774.9,105.2v28.4h-40.1v15.3h68.9v28.5h-98.3v-72.2H774.9z"/>
	<path class="st0" d="M704.9,94.3V66.6h98.5v27.8H704.9z"/>
	<path class="st0" d="M323.9,146.8V65.4h29.6c0,31.4,0.6,62.9-0.3,94.3c-0.3,11.7-10.1,16.7-20.8,17.1c-19.2,0.6-38.5,0.8-57.8,0
		c-14.6-0.6-21.3-8.3-21.6-22.8c-0.3-15.3-0.1-30.6-0.1-46.9h29.3v39.6L323.9,146.8z"/>
	<path class="st0" d="M916.1,177.1c-11.3,0-19.2,0.8-26.9-0.3c-4.7-0.7-10.1-3.3-13-6.9c-9.6-11.6-18.3-24.1-29.5-39.2V176h-29.3
		v-70.7c22.9,6.6,37.2-5.3,47.3-22.8c11.6-20,28.9-20.2,50.2-16.9l-44.5,53.9L916.1,177.1z"/>
</g>
<g id="Layer_2">
	<path class="st2" d="M816.8,93V65.5h28.3V93H816.8z"/>
	<path class="st2" d="M282,65.5v27.7h-28.4V65.5H282z"/>
	<path class="st2" d="M243.6,62.4c-0.5-0.2-1-0.1-1.5,0.1c-4.3,1.7-8.6,3.3-12.9,5c-20.1,7.8-40.2,15.6-60.3,23.4
		c-9.5,3.7-19.1,7.5-28.6,11.2l-2.7,1l-1.3,0.6l-2.6,1l-0.7,0.3l-2.6,1l-1.4,0.6l-2.5,0.9c-0.9,0.3-1.8,0.6-2.6,0.9
		c-24.2,9.5-48.4,18.9-72.7,28.4c-0.8,0.3-1.4,0.9-1.8,1.6c-5.5,10.3-11,20.6-16.4,31c-1.4,2.6-2.8,5.3-4.2,8.1c0.4,0,0.6,0,0.9,0
		c10.2,0,20.3,0,30.5,0c0.9,0,1.7-0.3,2.4-0.8c24.7-15.5,49.4-31.1,74.1-46.7c5-3.1,9.9-6.2,15-9.4c0.3,0.6,0.6,1,0.9,1.5
		c9.3,18,18.5,36,27.8,54c0.3,0.9,1.3,1.5,2.2,1.4c9.7-0.1,19.5,0,29.2,0h1.8c-12.5-24.3-24.8-48.3-37.2-72.5L243.6,62.4z"/>
</g>
</svg>
