<svg xmlns="http://www.w3.org/2000/svg" viewBox="0 0 916.1 177.39"><defs><style>.cls-1{fill:#9ad4e1;}.cls-2{fill:#082a2b;}.cls-3{fill:none;stroke:#000;stroke-linecap:round;stroke-linejoin:round;stroke-width:0;}</style></defs><g id="Layer_2" data-name="Layer 2"><g id="Layer_1-2" data-name="Layer 1"><path class="cls-1" d="M243.56,62.41a2.05,2.05,0,0,0-1.5.06q-6.45,2.48-12.89,5Q199,79.15,168.91,90.87q-14.32,5.58-28.65,11.2l-2.7,1-1.32.56-2.6,1-.72.27-2.57,1-1.42.63-2.53.9c-.88.3-1.77.56-2.63.89Q87.43,122.51,51.1,136.67a3.86,3.86,0,0,0-1.84,1.64q-8.26,15.45-16.43,31c-1.4,2.64-2.78,5.29-4.22,8.06.42,0,.63,0,.85,0,10.17,0,20.34,0,30.51,0a4.83,4.83,0,0,0,2.42-.77q37.08-23.32,74.12-46.7c5-3.13,9.92-6.24,15-9.41.34.59.63,1,.87,1.52q13.89,27,27.76,54a2.13,2.13,0,0,0,2.23,1.4c9.73-.06,19.46,0,29.19,0h1.83c-12.46-24.28-24.8-48.32-37.2-72.46Z"/><path class="cls-2" d="M122.3,0c-1.48,2.8-2.84,5.36-4.18,7.92l-9.56,18.22-2.73,5.23,0,0L98.06,46l0,0c-1.2,2.2-2.43,4.38-3.59,6.6-2.36,4.49-4.68,9-7,13.49l0,.14-2.69,5h0v0a3,3,0,0,0-.4.5Q78.2,83.35,72.12,94.93l0,.07c-.49.9-1.08,1.76-1.48,2.71-1.38,3.26-3.25,6.08-6.59,7.64h0l-7,4.29h0l-14.53,8.93h0l-10.22,6.27h0l-2.66,1.63a4.64,4.64,0,0,0-.72.32q-11.92,7.32-23.83,14.66L0,144.63a54.39,54.39,0,0,0,5.93-2l28.63-11.2Q66,119.2,97.49,107A3.16,3.16,0,0,0,99,105.57Q107.51,89.43,116,73.24l5.67-10.73L136.3,90.9l27.24-10.59Z"/><path class="cls-3" d="M105.83,31.37l2.73-5.23"/><path class="cls-3" d="M84.7,71.29l2.69-5"/><path class="cls-3" d="M84.7,71.29h0"/><path class="cls-2" d="M478.94,109.62h29.35v36.84H550.2V94.52H479.7c-.95-21.76,5.64-29.52,25-30.06q25.21-.69,50.46,0C572.66,65,579.6,72,579.8,89q.38,31.92,0,63.84c-.19,16.33-6.95,23.6-23.41,24.15-18.29.6-36.63.62-54.92-.07-15.78-.59-22.12-7.63-22.46-23.44C478.7,139.18,478.94,124.91,478.94,109.62Z"/><path class="cls-2" d="M465.8,66.53V94.85H431.53v82.54H401.36V95.68H366.69V66.53Z"/><path class="cls-2" d="M657.4,94.79v82.6H627.74V95.85H593V66.64h98.81V94.79Z"/><path class="cls-2" d="M774.9,105.15v28.36H734.84v15.34h68.87v28.54H705.39V105.15Z"/><path class="cls-2" d="M704.89,94.35V66.6h98.46V94.35Z"/><path class="cls-2" d="M323.9,146.76V65.45h29.56c0,31.45.59,62.9-.3,94.31-.33,11.71-10.14,16.73-20.79,17.09-19.24.64-38.54.8-57.76,0-14.57-.61-21.31-8.29-21.63-22.78-.34-15.27-.08-30.55-.08-46.95h29.35v39.65Z"/><path class="cls-1" d="M282,65.54V93.19H253.63V65.54Z"/><path class="cls-2" d="M916.1,177.1c-11.29,0-19.22.82-26.87-.3-4.65-.68-10.12-3.3-13.05-6.85-9.62-11.62-18.26-24.06-29.48-39.16V176H817.38V105.29c22.87,6.63,37.17-5.34,47.26-22.83,11.56-20,28.92-20.24,50.17-16.92l-44.49,53.91Z"/><path class="cls-1" d="M816.76,93V65.47h28.32V93Z"/></g></g></svg>